<?xml version="1.0" encoding="us-ascii" standalone="no"?><svg xmlns="http://www.w3.org/2000/svg" xmlns:xlink="http://www.w3.org/1999/xlink" contentStyleType="text/css" height="478px" preserveAspectRatio="none" style="width:4161px;height:478px;background:#FFFFFF;" version="1.1" viewBox="0 0 4161 478" width="4161px" zoomAndPan="magnify"><defs/><g><!--cluster Utils--><g id="cluster_Utils"><path d="M8.5,6 L47.5,6 A3.75,3.75 0 0 1 50,8.5 L57,28.2969 L3111.5,28.2969 A2.5,2.5 0 0 1 3114,30.7969 L3114,468.5 A2.5,2.5 0 0 1 3111.5,471 L8.5,471 A2.5,2.5 0 0 1 6,468.5 L6,8.5 A2.5,2.5 0 0 1 8.5,6 " fill="none" style="stroke:#000000;stroke-width:1.5;"/><line style="stroke:#000000;stroke-width:1.5;" x1="6" x2="57" y1="28.2969" y2="28.2969"/><text fill="#000000" font-family="sans-serif" font-size="14" font-weight="bold" lengthAdjust="spacing" textLength="38" x="10" y="20.9951">Utils</text></g><!--cluster Achievements--><g id="cluster_Achievements"><path d="M2212.5,49 L2326.5,49 A3.75,3.75 0 0 1 2329,51.5 L2336,71.2969 L3087.5,71.2969 A2.5,2.5 0 0 1 3090,73.7969 L3090,444.5 A2.5,2.5 0 0 1 3087.5,447 L2212.5,447 A2.5,2.5 0 0 1 2210,444.5 L2210,51.5 A2.5,2.5 0 0 1 2212.5,49 " fill="none" style="stroke:#000000;stroke-width:1.5;"/><line style="stroke:#000000;stroke-width:1.5;" x1="2210" x2="2336" y1="71.2969" y2="71.2969"/><text fill="#000000" font-family="sans-serif" font-size="14" font-weight="bold" lengthAdjust="spacing" textLength="113" x="2214" y="63.9951">Achievements</text></g><!--cluster RuntimeSet--><g id="cluster_RuntimeSet"><path d="M1840.5,89.5 L1936.5,89.5 A3.75,3.75 0 0 1 1939,92 L1946,111.7969 L2183.5,111.7969 A2.5,2.5 0 0 1 2186,114.2969 L2186,420 A2.5,2.5 0 0 1 2183.5,422.5 L1840.5,422.5 A2.5,2.5 0 0 1 1838,420 L1838,92 A2.5,2.5 0 0 1 1840.5,89.5 " fill="none" style="stroke:#000000;stroke-width:1.5;"/><line style="stroke:#000000;stroke-width:1.5;" x1="1838" x2="1946" y1="111.7969" y2="111.7969"/><text fill="#000000" font-family="sans-serif" font-size="14" font-weight="bold" lengthAdjust="spacing" textLength="95" x="1842" y="104.4951">RuntimeSet</text></g><!--cluster CustomAttributes--><g id="cluster_CustomAttributes"><path d="M1162.5,89.5 L1310.5,89.5 A3.75,3.75 0 0 1 1313,92 L1320,111.7969 L1811.5,111.7969 A2.5,2.5 0 0 1 1814,114.2969 L1814,436.5 A2.5,2.5 0 0 1 1811.5,439 L1162.5,439 A2.5,2.5 0 0 1 1160,436.5 L1160,92 A2.5,2.5 0 0 1 1162.5,89.5 " fill="none" style="stroke:#000000;stroke-width:1.5;"/><line style="stroke:#000000;stroke-width:1.5;" x1="1160" x2="1320" y1="111.7969" y2="111.7969"/><text fill="#000000" font-family="sans-serif" font-size="14" font-weight="bold" lengthAdjust="spacing" textLength="147" x="1164" y="104.4951">CustomAttributes</text></g><!--cluster Resources--><g id="cluster_Resources"><path d="M3140.5,278 L3224.5,278 A3.75,3.75 0 0 1 3227,280.5 L3234,300.2969 L4151.5,300.2969 A2.5,2.5 0 0 1 4154,302.7969 L4154,446.5 A2.5,2.5 0 0 1 4151.5,449 L3140.5,449 A2.5,2.5 0 0 1 3138,446.5 L3138,280.5 A2.5,2.5 0 0 1 3140.5,278 " fill="none" style="stroke:#000000;stroke-width:1.5;"/><line style="stroke:#000000;stroke-width:1.5;" x1="3138" x2="3234" y1="300.2969" y2="300.2969"/><text fill="#000000" font-family="sans-serif" font-size="14" font-weight="bold" lengthAdjust="spacing" textLength="83" x="3142" y="292.9951">Resources</text></g><!--cluster Achievements--><g id="cluster_Achievements"><path d="M3694.5,321 L3808.5,321 A3.75,3.75 0 0 1 3811,323.5 L3818,343.2969 L4127.5,343.2969 A2.5,2.5 0 0 1 4130,345.7969 L4130,422.5 A2.5,2.5 0 0 1 4127.5,425 L3694.5,425 A2.5,2.5 0 0 1 3692,422.5 L3692,323.5 A2.5,2.5 0 0 1 3694.5,321 " fill="none" style="stroke:#000000;stroke-width:1.5;"/><line style="stroke:#000000;stroke-width:1.5;" x1="3692" x2="3818" y1="343.2969" y2="343.2969"/><text fill="#000000" font-family="sans-serif" font-size="14" font-weight="bold" lengthAdjust="spacing" textLength="113" x="3696" y="335.9951">Achievements</text></g><!--class ClampedFloat--><g id="elem_ClampedFloat"><rect codeLine="43" fill="#F1F1F1" height="162.0781" id="ClampedFloat" rx="2.5" ry="2.5" style="stroke:#181818;stroke-width:0.5;" width="296" x="317" y="92"/><ellipse cx="410.75" cy="108" fill="#F1F1F1" rx="11" ry="11" style="stroke:#181818;stroke-width:1.0;"/><path d="M414.5313,103.9688 C414.5313,103.5313 414.5156,103.3906 414.4219,103.2344 C414.2813,103 414,102.8438 413.7031,102.8438 C413.3594,102.8438 413.2188,102.9844 413.0469,103.4063 C412.4531,103.0313 411.7031,102.8438 410.8281,102.8438 C408.7188,102.8438 407.1406,104.1406 407.1406,105.8594 C407.1406,106.8281 407.6719,107.7344 408.5313,108.2188 C409.0781,108.5313 409.625,108.7031 410.7344,108.8906 C411.8906,109.0938 412.1563,109.1563 412.5156,109.3438 C412.8906,109.5469 413.125,109.8906 413.125,110.25 C413.125,110.9844 412.1406,111.5313 410.8906,111.5313 C409.7656,111.5313 408.6875,111.0469 408.5156,110.4375 C408.3906,109.9688 408.3906,109.9688 408.2656,109.8594 C408.1094,109.7031 407.8906,109.6094 407.6563,109.6094 C407.375,109.6094 407.125,109.7344 406.9531,109.9531 C406.8438,110.125 406.7969,110.3125 406.7969,110.7344 L406.7969,111.8594 C406.7969,112.625 407.0781,112.9844 407.6719,112.9844 C407.9375,112.9844 408.0625,112.9219 408.3438,112.5781 C409.1875,113.0156 410.0781,113.2344 411,113.2344 C413.3281,113.2344 414.8906,112.0469 414.8906,110.2813 C414.8906,109.3906 414.5781,108.7031 413.8906,108.1563 C413.3594,107.7344 412.7188,107.4844 411.2344,107.2188 C409.9688,106.9844 409.875,106.9531 409.5469,106.7813 C409.1719,106.5938 408.9063,106.2031 408.9063,105.8438 C408.9063,105.1094 409.7656,104.5469 410.8281,104.5469 C411.8906,104.5469 412.7031,105.0156 412.8594,105.6875 C412.9688,106.2344 412.9688,106.2344 413.0938,106.375 C413.2344,106.5 413.4688,106.6094 413.7031,106.6094 C413.9688,106.6094 414.2188,106.4688 414.3906,106.25 C414.5,106.0781 414.5313,105.9375 414.5313,105.4688 L414.5313,103.9688 Z " fill="#000000"/><text fill="#000000" font-family="sans-serif" font-size="14" lengthAdjust="spacing" textLength="100" x="431.25" y="112.8467">ClampedFloat</text><line style="stroke:#181818;stroke-width:0.5;" x1="318" x2="612" y1="124" y2="124"/><rect fill="none" height="6" style="stroke:#C82930;stroke-width:1.0;" width="6" x="325" y="134.6484"/><text fill="#000000" font-family="sans-serif" font-size="14" lengthAdjust="spacing" textLength="104" x="337" y="140.9951">float minValue</text><rect fill="none" height="6" style="stroke:#C82930;stroke-width:1.0;" width="6" x="325" y="150.9453"/><text fill="#000000" font-family="sans-serif" font-size="14" lengthAdjust="spacing" textLength="107" x="337" y="157.292">float maxValue</text><rect fill="none" height="6" style="stroke:#C82930;stroke-width:1.0;" width="6" x="325" y="167.2422"/><text fill="#000000" font-family="sans-serif" font-size="14" lengthAdjust="spacing" textLength="75" x="337" y="173.5889">float value</text><rect fill="none" height="6" style="stroke:#C82930;stroke-width:1.0;" width="6" x="325" y="183.5391"/><text fill="#000000" font-family="sans-serif" font-size="14" lengthAdjust="spacing" textLength="77" x="337" y="189.8857">float Value</text><ellipse cx="328" cy="202.8359" fill="none" rx="3" ry="3" style="stroke:#038048;stroke-width:1.0;"/><text fill="#000000" font-family="sans-serif" font-size="14" lengthAdjust="spacing" textLength="263" x="337" y="206.1826">UnityAction&lt;float&gt; OnIncreaseValue</text><ellipse cx="328" cy="219.1328" fill="none" rx="3" ry="3" style="stroke:#038048;stroke-width:1.0;"/><text fill="#000000" font-family="sans-serif" font-size="14" lengthAdjust="spacing" textLength="270" x="337" y="222.4795">UnityAction&lt;float&gt; OnDecreaseValue</text><ellipse cx="328" cy="235.4297" fill="none" rx="3" ry="3" style="stroke:#038048;stroke-width:1.0;"/><text fill="#000000" font-family="sans-serif" font-size="14" lengthAdjust="spacing" textLength="266" x="337" y="238.7764">UnityAction&lt;float&gt; OnValueChanged</text><line style="stroke:#181818;stroke-width:0.5;" x1="318" x2="612" y1="246.0781" y2="246.0781"/></g><!--class IFactory--><g id="elem_IFactory"><rect codeLine="53" fill="#F1F1F1" height="64.2969" id="IFactory" rx="2.5" ry="2.5" style="stroke:#181818;stroke-width:0.5;" width="257" x="23.5" y="350.5"/><ellipse cx="119.25" cy="366.5" fill="#B4A7E5" rx="11" ry="11" style="stroke:#181818;stroke-width:1.0;"/><path d="M120.2031,363.2813 L121.9219,363.2813 C122.3125,363.2813 122.5,363.25 122.625,363.1719 C122.8906,363.0156 123.0313,362.7344 123.0313,362.4375 C123.0313,362.1719 122.9219,361.9063 122.6875,361.7344 C122.5156,361.625 122.375,361.5938 121.9219,361.5938 L116.7813,361.5938 C116.3438,361.5938 116.2188,361.6094 116.0625,361.7031 C115.8125,361.8594 115.6563,362.1563 115.6563,362.4375 C115.6563,362.7188 115.7969,362.9688 116.0156,363.1406 C116.1719,363.25 116.3594,363.2813 116.7813,363.2813 L118.5,363.2813 L118.5,369.7969 L116.7813,369.7969 C116.3438,369.7969 116.2188,369.8125 116.0625,369.9219 C115.8125,370.0781 115.6563,370.3594 115.6563,370.6563 C115.6563,370.9063 115.7969,371.1719 116.0156,371.3281 C116.1719,371.4531 116.375,371.5 116.7813,371.5 L121.9219,371.5 C122.6719,371.5 123.0313,371.2188 123.0313,370.6563 C123.0313,370.375 122.9219,370.125 122.6875,369.9531 C122.5156,369.8281 122.375,369.7969 121.9219,369.7969 L120.2031,369.7969 L120.2031,363.2813 Z " fill="#000000"/><text fill="#000000" font-family="sans-serif" font-size="14" font-style="italic" lengthAdjust="spacing" textLength="57" x="139.75" y="371.3467">IFactory</text><line style="stroke:#181818;stroke-width:0.5;" x1="24.5" x2="279.5" y1="382.5" y2="382.5"/><line style="stroke:#181818;stroke-width:0.5;" x1="24.5" x2="279.5" y1="390.5" y2="390.5"/><text fill="#000000" font-family="sans-serif" font-size="14" lengthAdjust="spacing" textLength="245" x="29.5" y="407.4951">GameObject CreateGameObject()</text></g><!--class GenericUtils--><g id="elem_GenericUtils"><rect codeLine="57" fill="#F1F1F1" height="113.1875" id="GenericUtils" rx="2.5" ry="2.5" style="stroke:#181818;stroke-width:0.5;" width="495" x="648.5" y="116.5"/><ellipse cx="848.25" cy="132.5" fill="#ADD1B2" rx="11" ry="11" style="stroke:#181818;stroke-width:1.0;"/><path d="M850.5938,128.1719 C849.6563,127.7344 849.0625,127.5938 848.1875,127.5938 C845.5625,127.5938 843.5625,129.6719 843.5625,132.3906 L843.5625,133.5156 C843.5625,136.0938 845.6719,137.9844 848.5625,137.9844 C849.7813,137.9844 850.9375,137.6875 851.6875,137.1406 C852.2656,136.7344 852.5938,136.2813 852.5938,135.8906 C852.5938,135.4375 852.2031,135.0469 851.7344,135.0469 C851.5156,135.0469 851.3125,135.125 851.125,135.3125 C850.6719,135.7969 850.6719,135.7969 850.4844,135.8906 C850.0625,136.1563 849.375,136.2813 848.6094,136.2813 C846.5625,136.2813 845.2656,135.1875 845.2656,133.4844 L845.2656,132.3906 C845.2656,130.6094 846.5156,129.2969 848.25,129.2969 C848.8281,129.2969 849.4375,129.4531 849.9063,129.7031 C850.3906,129.9844 850.5625,130.2031 850.6563,130.6094 C850.7188,131.0156 850.75,131.1406 850.8906,131.2656 C851.0313,131.4063 851.2656,131.5156 851.4844,131.5156 C851.75,131.5156 852.0156,131.375 852.1875,131.1563 C852.2969,131 852.3281,130.8125 852.3281,130.3906 L852.3281,128.9688 C852.3281,128.5313 852.3125,128.4063 852.2188,128.25 C852.0625,127.9844 851.7813,127.8438 851.4844,127.8438 C851.1875,127.8438 850.9844,127.9375 850.7656,128.25 L850.5938,128.1719 Z " fill="#000000"/><text fill="#000000" font-family="sans-serif" font-size="14" lengthAdjust="spacing" textLength="87" x="868.75" y="137.3467">GenericUtils</text><line style="stroke:#181818;stroke-width:0.5;" x1="649.5" x2="1142.5" y1="148.5" y2="148.5"/><ellipse cx="659.5" cy="162.1484" fill="none" rx="3" ry="3" style="stroke:#038048;stroke-width:1.0;"/><text fill="#000000" font-family="sans-serif" font-size="14" lengthAdjust="spacing" textLength="205" x="668.5" y="165.4951">T GetRandomFromArray&lt;T&gt;</text><ellipse cx="659.5" cy="178.4453" fill="none" rx="3" ry="3" style="stroke:#038048;stroke-width:1.0;"/><text fill="#000000" font-family="sans-serif" font-size="14" lengthAdjust="spacing" textLength="396" x="668.5" y="181.792">T AddComponentIfNotExists&lt;T&gt; where T : Component</text><ellipse cx="659.5" cy="194.7422" fill="none" rx="3" ry="3" style="stroke:#038048;stroke-width:1.0;"/><text fill="#000000" font-family="sans-serif" font-size="14" lengthAdjust="spacing" textLength="469" x="668.5" y="198.0889">T[] GetAllScrubsInResourceFolder&lt;T&gt; where T : ScriptableObject</text><ellipse cx="659.5" cy="211.0391" fill="none" rx="3" ry="3" style="stroke:#038048;stroke-width:1.0;"/><text fill="#000000" font-family="sans-serif" font-size="14" lengthAdjust="spacing" textLength="420" x="668.5" y="214.3857">T GetScrubByNameInArray&lt;T&gt; where T : ScriptableObject</text><line style="stroke:#181818;stroke-width:0.5;" x1="649.5" x2="1142.5" y1="221.6875" y2="221.6875"/></g><!--class RotateTowardsMouse--><g id="elem_RotateTowardsMouse"><rect codeLine="64" fill="#F1F1F1" height="80.5938" id="RotateTowardsMouse" rx="2.5" ry="2.5" style="stroke:#181818;stroke-width:0.5;" width="282" x="324" y="342"/><ellipse cx="339" cy="358" fill="#ADD1B2" rx="11" ry="11" style="stroke:#181818;stroke-width:1.0;"/><path d="M341.3438,353.6719 C340.4063,353.2344 339.8125,353.0938 338.9375,353.0938 C336.3125,353.0938 334.3125,355.1719 334.3125,357.8906 L334.3125,359.0156 C334.3125,361.5938 336.4219,363.4844 339.3125,363.4844 C340.5313,363.4844 341.6875,363.1875 342.4375,362.6406 C343.0156,362.2344 343.3438,361.7813 343.3438,361.3906 C343.3438,360.9375 342.9531,360.5469 342.4844,360.5469 C342.2656,360.5469 342.0625,360.625 341.875,360.8125 C341.4219,361.2969 341.4219,361.2969 341.2344,361.3906 C340.8125,361.6563 340.125,361.7813 339.3594,361.7813 C337.3125,361.7813 336.0156,360.6875 336.0156,358.9844 L336.0156,357.8906 C336.0156,356.1094 337.2656,354.7969 339,354.7969 C339.5781,354.7969 340.1875,354.9531 340.6563,355.2031 C341.1406,355.4844 341.3125,355.7031 341.4063,356.1094 C341.4688,356.5156 341.5,356.6406 341.6406,356.7656 C341.7813,356.9063 342.0156,357.0156 342.2344,357.0156 C342.5,357.0156 342.7656,356.875 342.9375,356.6563 C343.0469,356.5 343.0781,356.3125 343.0781,355.8906 L343.0781,354.4688 C343.0781,354.0313 343.0625,353.9063 342.9688,353.75 C342.8125,353.4844 342.5313,353.3438 342.2344,353.3438 C341.9375,353.3438 341.7344,353.4375 341.5156,353.75 L341.3438,353.6719 Z " fill="#000000"/><text fill="#000000" font-family="sans-serif" font-size="14" lengthAdjust="spacing" textLength="154" x="353" y="362.8467">RotateTowardsMouse</text><rect fill="#FFFFFF" height="15.9688" style="stroke:#181818;stroke-width:1.0;stroke-dasharray:2.0,2.0;" width="94" x="515" y="339"/><text fill="#000000" font-family="sans-serif" font-size="12" font-style="italic" lengthAdjust="spacing" textLength="92" x="516" y="351.1387">MonoBehaviour</text><line style="stroke:#181818;stroke-width:0.5;" x1="325" x2="605" y1="374" y2="374"/><ellipse cx="335" cy="387.6484" fill="none" rx="3" ry="3" style="stroke:#038048;stroke-width:1.0;"/><text fill="#000000" font-family="sans-serif" font-size="14" lengthAdjust="spacing" textLength="206" x="344" y="390.9951">GameObject rotatedObjects</text><polygon fill="none" points="335,398.9453,339,402.9453,335,406.9453,331,402.9453" style="stroke:#B38D22;stroke-width:1.0;"/><text fill="#000000" font-family="sans-serif" font-size="14" lengthAdjust="spacing" textLength="86" x="344" y="407.292">void Update</text><line style="stroke:#181818;stroke-width:0.5;" x1="325" x2="605" y1="414.5938" y2="414.5938"/></g><!--class Spawner--><g id="elem_Spawner"><rect codeLine="69" fill="#F1F1F1" height="145.7813" id="Spawner" rx="2.5" ry="2.5" style="stroke:#181818;stroke-width:0.5;" width="260" x="22" y="100"/><ellipse cx="68.75" cy="116" fill="#A9DCDF" rx="11" ry="11" style="stroke:#181818;stroke-width:1.0;"/><path d="M70.8281,117.8125 L71.2188,118.7969 L70.8281,118.7969 C70.375,118.7969 70.2656,118.8125 70.1094,118.9219 C69.8594,119.0781 69.7031,119.3594 69.7031,119.6563 C69.7031,119.9219 69.8438,120.1719 70.0625,120.3281 C70.2031,120.4531 70.4063,120.5 70.8281,120.5 L73.1875,120.5 C73.5469,120.5 73.7656,120.4688 73.9063,120.375 C74.1563,120.2344 74.3125,119.9375 74.3125,119.6563 C74.3125,119.375 74.1719,119.125 73.9531,118.9688 C73.7813,118.8281 73.625,118.7969 73.1563,118.7969 L69.7656,110.5938 L66.0938,110.5938 C65.6406,110.5938 65.5156,110.6094 65.3594,110.7031 C65.1094,110.875 64.9531,111.1563 64.9531,111.4375 C64.9531,111.7188 65.0938,111.9688 65.3125,112.1406 C65.4844,112.25 65.6563,112.2813 66.0938,112.2813 L67.1719,112.2813 L64.5313,118.7969 C64.1094,118.7969 63.9531,118.8125 63.7969,118.9219 C63.5469,119.0781 63.3906,119.3594 63.3906,119.6563 C63.3906,120.2188 63.7656,120.5 64.5156,120.5 L66.7813,120.5 C67.1406,120.5 67.3594,120.4688 67.4844,120.375 C67.75,120.2344 67.8906,119.9375 67.8906,119.6563 C67.8906,119.375 67.7656,119.125 67.5469,118.9531 C67.375,118.8281 67.2344,118.7969 66.7813,118.7969 L66.3906,118.7969 L66.7813,117.8125 L70.8281,117.8125 Z M70.125,116.1094 L67.4531,116.1094 L68.7969,112.8438 L70.125,116.1094 Z " fill="#000000"/><text fill="#000000" font-family="sans-serif" font-size="14" font-style="italic" lengthAdjust="spacing" textLength="62" x="89.25" y="120.8467">Spawner</text><rect fill="#FFFFFF" height="15.9688" style="stroke:#181818;stroke-width:1.0;stroke-dasharray:2.0,2.0;" width="94" x="191" y="97"/><text fill="#000000" font-family="sans-serif" font-size="12" font-style="italic" lengthAdjust="spacing" textLength="92" x="192" y="109.1387">MonoBehaviour</text><line style="stroke:#181818;stroke-width:0.5;" x1="23" x2="281" y1="132" y2="132"/><rect fill="none" height="6" style="stroke:#C82930;stroke-width:1.0;" width="6" x="30" y="142.6484"/><text fill="#000000" font-family="sans-serif" font-size="14" lengthAdjust="spacing" textLength="220" x="42" y="148.9951">Coroutine _spawningCoroutine</text><polygon fill="none" points="33,157.9453,29,163.9453,37,163.9453" style="stroke:#1963A0;stroke-width:1.0;"/><text fill="#000000" font-family="sans-serif" font-size="14" lengthAdjust="spacing" textLength="116" x="42" y="165.292">IFactory Factory</text><polygon fill="none" points="33,173.2422,37,177.2422,33,181.2422,29,177.2422" style="stroke:#B38D22;stroke-width:1.0;"/><text fill="#000000" font-family="sans-serif" font-size="14" lengthAdjust="spacing" textLength="221" x="42" y="181.5889">virtual void SpawnGameObject</text><polygon fill="none" points="33,189.5391,37,193.5391,33,197.5391,29,193.5391" style="stroke:#B38D22;stroke-width:1.0;"/><text fill="#000000" font-family="sans-serif" font-size="14" lengthAdjust="spacing" textLength="212" x="42" y="197.8857">void StartSpawningAtInterval</text><polygon fill="none" points="33,205.8359,37,209.8359,33,213.8359,29,209.8359" style="stroke:#B38D22;stroke-width:1.0;"/><text fill="#000000" font-family="sans-serif" font-size="14" lengthAdjust="spacing" textLength="210" x="42" y="214.1826">void StopSpawningAtInterval</text><polygon fill="none" points="33,222.1328,37,226.1328,33,230.1328,29,226.1328" style="stroke:#B38D22;stroke-width:1.0;"/><text fill="#000000" font-family="sans-serif" font-size="14" lengthAdjust="spacing" textLength="234" x="42" y="230.4795">IEnumerator SpawningAtInterval</text><line style="stroke:#181818;stroke-width:0.5;" x1="23" x2="281" y1="237.7813" y2="237.7813"/></g><!--class Achievement--><g id="elem_Achievement"><rect codeLine="3" fill="#F1F1F1" height="113.1875" id="Achievement" rx="2.5" ry="2.5" style="stroke:#181818;stroke-width:0.5;" width="250" x="2499" y="116.5"/><ellipse cx="2522.1" cy="132.5" fill="#ADD1B2" rx="11" ry="11" style="stroke:#181818;stroke-width:1.0;"/><path d="M2524.4438,128.1719 C2523.5063,127.7344 2522.9125,127.5938 2522.0375,127.5938 C2519.4125,127.5938 2517.4125,129.6719 2517.4125,132.3906 L2517.4125,133.5156 C2517.4125,136.0938 2519.5219,137.9844 2522.4125,137.9844 C2523.6313,137.9844 2524.7875,137.6875 2525.5375,137.1406 C2526.1156,136.7344 2526.4438,136.2813 2526.4438,135.8906 C2526.4438,135.4375 2526.0531,135.0469 2525.5844,135.0469 C2525.3656,135.0469 2525.1625,135.125 2524.975,135.3125 C2524.5219,135.7969 2524.5219,135.7969 2524.3344,135.8906 C2523.9125,136.1563 2523.225,136.2813 2522.4594,136.2813 C2520.4125,136.2813 2519.1156,135.1875 2519.1156,133.4844 L2519.1156,132.3906 C2519.1156,130.6094 2520.3656,129.2969 2522.1,129.2969 C2522.6781,129.2969 2523.2875,129.4531 2523.7563,129.7031 C2524.2406,129.9844 2524.4125,130.2031 2524.5063,130.6094 C2524.5688,131.0156 2524.6,131.1406 2524.7406,131.2656 C2524.8813,131.4063 2525.1156,131.5156 2525.3344,131.5156 C2525.6,131.5156 2525.8656,131.375 2526.0375,131.1563 C2526.1469,131 2526.1781,130.8125 2526.1781,130.3906 L2526.1781,128.9688 C2526.1781,128.5313 2526.1625,128.4063 2526.0688,128.25 C2525.9125,127.9844 2525.6313,127.8438 2525.3344,127.8438 C2525.0375,127.8438 2524.8344,127.9375 2524.6156,128.25 L2524.4438,128.1719 Z " fill="#000000"/><text fill="#000000" font-family="sans-serif" font-size="14" lengthAdjust="spacing" textLength="96" x="2537.9" y="137.3467">Achievement</text><rect fill="#FFFFFF" height="15.9688" style="stroke:#181818;stroke-width:1.0;stroke-dasharray:2.0,2.0;" width="102" x="2650" y="113.5"/><text fill="#000000" font-family="sans-serif" font-size="12" font-style="italic" lengthAdjust="spacing" textLength="100" x="2651" y="125.6387">ScriptableObject</text><line style="stroke:#181818;stroke-width:0.5;" x1="2500" x2="2748" y1="148.5" y2="148.5"/><rect fill="none" height="6" style="stroke:#C82930;stroke-width:1.0;" width="6" x="2507" y="159.1484"/><text fill="#000000" font-family="sans-serif" font-size="14" lengthAdjust="spacing" textLength="181" x="2519" y="165.4951">string achievementName</text><rect fill="none" height="6" style="stroke:#C82930;stroke-width:1.0;" width="6" x="2507" y="175.4453"/><text fill="#000000" font-family="sans-serif" font-size="14" lengthAdjust="spacing" textLength="224" x="2519" y="181.792">string achievementDescription</text><rect fill="none" height="6" style="stroke:#C82930;stroke-width:1.0;" width="6" x="2507" y="191.7422"/><text fill="#000000" font-family="sans-serif" font-size="14" lengthAdjust="spacing" textLength="99" x="2519" y="198.0889">bool isGotten</text><polygon fill="none" points="2510,207.0391,2506,213.0391,2514,213.0391" style="stroke:#1963A0;stroke-width:1.0;"/><text fill="#000000" font-family="sans-serif" font-size="14" lengthAdjust="spacing" textLength="205" x="2519" y="214.3857">Requirement[] requirements</text><line style="stroke:#181818;stroke-width:0.5;" x1="2500" x2="2748" y1="221.6875" y2="221.6875"/></g><!--class Requirement--><g id="elem_Requirement"><rect codeLine="10" fill="#F1F1F1" height="96.8906" id="Requirement" rx="2.5" ry="2.5" style="stroke:#181818;stroke-width:0.5;" width="169" x="2539.5" y="334"/><ellipse cx="2573.85" cy="350" fill="#ADD1B2" rx="11" ry="11" style="stroke:#181818;stroke-width:1.0;"/><path d="M2576.1938,345.6719 C2575.2563,345.2344 2574.6625,345.0938 2573.7875,345.0938 C2571.1625,345.0938 2569.1625,347.1719 2569.1625,349.8906 L2569.1625,351.0156 C2569.1625,353.5938 2571.2719,355.4844 2574.1625,355.4844 C2575.3813,355.4844 2576.5375,355.1875 2577.2875,354.6406 C2577.8656,354.2344 2578.1938,353.7813 2578.1938,353.3906 C2578.1938,352.9375 2577.8031,352.5469 2577.3344,352.5469 C2577.1156,352.5469 2576.9125,352.625 2576.725,352.8125 C2576.2719,353.2969 2576.2719,353.2969 2576.0844,353.3906 C2575.6625,353.6563 2574.975,353.7813 2574.2094,353.7813 C2572.1625,353.7813 2570.8656,352.6875 2570.8656,350.9844 L2570.8656,349.8906 C2570.8656,348.1094 2572.1156,346.7969 2573.85,346.7969 C2574.4281,346.7969 2575.0375,346.9531 2575.5063,347.2031 C2575.9906,347.4844 2576.1625,347.7031 2576.2563,348.1094 C2576.3188,348.5156 2576.35,348.6406 2576.4906,348.7656 C2576.6313,348.9063 2576.8656,349.0156 2577.0844,349.0156 C2577.35,349.0156 2577.6156,348.875 2577.7875,348.6563 C2577.8969,348.5 2577.9281,348.3125 2577.9281,347.8906 L2577.9281,346.4688 C2577.9281,346.0313 2577.9125,345.9063 2577.8188,345.75 C2577.6625,345.4844 2577.3813,345.3438 2577.0844,345.3438 C2576.7875,345.3438 2576.5844,345.4375 2576.3656,345.75 L2576.1938,345.6719 Z " fill="#000000"/><text fill="#000000" font-family="sans-serif" font-size="14" lengthAdjust="spacing" textLength="94" x="2592.15" y="354.8467">Requirement</text><line style="stroke:#181818;stroke-width:0.5;" x1="2540.5" x2="2707.5" y1="366" y2="366"/><rect fill="none" height="6" style="stroke:#C82930;stroke-width:1.0;" width="6" x="2547.5" y="376.6484"/><text fill="#000000" font-family="sans-serif" font-size="14" lengthAdjust="spacing" textLength="135" x="2559.5" y="382.9951">TrackableStat stat</text><rect fill="none" height="6" style="stroke:#C82930;stroke-width:1.0;" width="6" x="2547.5" y="392.9453"/><text fill="#000000" font-family="sans-serif" font-size="14" lengthAdjust="spacing" textLength="143" x="2559.5" y="399.292">int amountRequired</text><rect fill="none" height="6" style="stroke:#C82930;stroke-width:1.0;" width="6" x="2547.5" y="409.2422"/><text fill="#000000" font-family="sans-serif" font-size="14" lengthAdjust="spacing" textLength="119" x="2559.5" y="415.5889">bool isComplete</text><line style="stroke:#181818;stroke-width:0.5;" x1="2540.5" x2="2707.5" y1="422.8906" y2="422.8906"/></g><!--class AchievementFunctions--><g id="elem_AchievementFunctions"><rect codeLine="16" fill="#F1F1F1" height="178.375" id="AchievementFunctions" rx="2.5" ry="2.5" style="stroke:#181818;stroke-width:0.5;" width="290" x="2784" y="84"/><ellipse cx="2799" cy="100" fill="#A9DCDF" rx="11" ry="11" style="stroke:#181818;stroke-width:1.0;"/><path d="M2801.0781,101.8125 L2801.4688,102.7969 L2801.0781,102.7969 C2800.625,102.7969 2800.5156,102.8125 2800.3594,102.9219 C2800.1094,103.0781 2799.9531,103.3594 2799.9531,103.6563 C2799.9531,103.9219 2800.0938,104.1719 2800.3125,104.3281 C2800.4531,104.4531 2800.6563,104.5 2801.0781,104.5 L2803.4375,104.5 C2803.7969,104.5 2804.0156,104.4688 2804.1563,104.375 C2804.4063,104.2344 2804.5625,103.9375 2804.5625,103.6563 C2804.5625,103.375 2804.4219,103.125 2804.2031,102.9688 C2804.0313,102.8281 2803.875,102.7969 2803.4063,102.7969 L2800.0156,94.5938 L2796.3438,94.5938 C2795.8906,94.5938 2795.7656,94.6094 2795.6094,94.7031 C2795.3594,94.875 2795.2031,95.1563 2795.2031,95.4375 C2795.2031,95.7188 2795.3438,95.9688 2795.5625,96.1406 C2795.7344,96.25 2795.9063,96.2813 2796.3438,96.2813 L2797.4219,96.2813 L2794.7813,102.7969 C2794.3594,102.7969 2794.2031,102.8125 2794.0469,102.9219 C2793.7969,103.0781 2793.6406,103.3594 2793.6406,103.6563 C2793.6406,104.2188 2794.0156,104.5 2794.7656,104.5 L2797.0313,104.5 C2797.3906,104.5 2797.6094,104.4688 2797.7344,104.375 C2798,104.2344 2798.1406,103.9375 2798.1406,103.6563 C2798.1406,103.375 2798.0156,103.125 2797.7969,102.9531 C2797.625,102.8281 2797.4844,102.7969 2797.0313,102.7969 L2796.6406,102.7969 L2797.0313,101.8125 L2801.0781,101.8125 Z M2800.375,100.1094 L2797.7031,100.1094 L2799.0469,96.8438 L2800.375,100.1094 Z " fill="#000000"/><text fill="#000000" font-family="sans-serif" font-size="14" font-style="italic" lengthAdjust="spacing" textLength="162" x="2813" y="104.8467">AchievementFunctions</text><rect fill="#FFFFFF" height="15.9688" style="stroke:#181818;stroke-width:1.0;stroke-dasharray:2.0,2.0;" width="94" x="2983" y="81"/><text fill="#000000" font-family="sans-serif" font-size="12" font-style="italic" lengthAdjust="spacing" textLength="92" x="2984" y="93.1387">MonoBehaviour</text><line style="stroke:#181818;stroke-width:0.5;" x1="2785" x2="3073" y1="116" y2="116"/><polygon fill="none" points="2795,125.6484,2791,131.6484,2799,131.6484" style="stroke:#1963A0;stroke-width:1.0;"/><text fill="#000000" font-family="sans-serif" font-size="14" lengthAdjust="spacing" textLength="231" x="2804" y="132.9951">Achievement[] AllAchievements</text><polygon fill="none" points="2795,141.9453,2791,147.9453,2799,147.9453" style="stroke:#1963A0;stroke-width:1.0;"/><text fill="#000000" font-family="sans-serif" font-size="14" lengthAdjust="spacing" textLength="243" x="2804" y="149.292">TrackableStat[] AllTrackableStats</text><polygon fill="none" points="2795,157.2422,2799,161.2422,2795,165.2422,2791,161.2422" style="stroke:#B38D22;stroke-width:1.0;"/><text fill="#000000" font-family="sans-serif" font-size="14" lengthAdjust="spacing" textLength="81" x="2804" y="165.5889">void Awake</text><polygon fill="none" points="2795,173.5391,2799,177.5391,2795,181.5391,2791,177.5391" style="stroke:#B38D22;stroke-width:1.0;"/><text fill="#000000" font-family="sans-serif" font-size="14" lengthAdjust="spacing" textLength="198" x="2804" y="181.8857">void InitializeAchievements</text><polygon fill="none" points="2795,189.8359,2799,193.8359,2795,197.8359,2791,193.8359" style="stroke:#B38D22;stroke-width:1.0;"/><text fill="#000000" font-family="sans-serif" font-size="14" lengthAdjust="spacing" textLength="243" x="2804" y="198.1826">abstract void UnlockAchievement</text><polygon fill="none" points="2795,206.1328,2799,210.1328,2795,214.1328,2791,210.1328" style="stroke:#B38D22;stroke-width:1.0;"/><text fill="#000000" font-family="sans-serif" font-size="14" lengthAdjust="spacing" textLength="234" x="2804" y="214.4795">void ResetAchievementProgress</text><polygon fill="none" points="2795,222.4297,2799,226.4297,2795,230.4297,2791,226.4297" style="stroke:#B38D22;stroke-width:1.0;"/><text fill="#000000" font-family="sans-serif" font-size="14" lengthAdjust="spacing" textLength="196" x="2804" y="230.7764">void IncreaseTrackableStat</text><polygon fill="none" points="2795,238.7266,2799,242.7266,2795,246.7266,2791,242.7266" style="stroke:#B38D22;stroke-width:1.0;"/><text fill="#000000" font-family="sans-serif" font-size="14" lengthAdjust="spacing" textLength="180" x="2804" y="247.0732">bool HasAllRequirements</text><line style="stroke:#181818;stroke-width:0.5;" x1="2785" x2="3073" y1="254.375" y2="254.375"/></g><!--class TrackableStat--><g id="elem_TrackableStat"><rect codeLine="27" fill="#F1F1F1" height="64.2969" id="TrackableStat" rx="2.5" ry="2.5" style="stroke:#181818;stroke-width:0.5;" width="238" x="2226" y="141"/><ellipse cx="2241" cy="157" fill="#ADD1B2" rx="11" ry="11" style="stroke:#181818;stroke-width:1.0;"/><path d="M2243.3438,152.6719 C2242.4063,152.2344 2241.8125,152.0938 2240.9375,152.0938 C2238.3125,152.0938 2236.3125,154.1719 2236.3125,156.8906 L2236.3125,158.0156 C2236.3125,160.5938 2238.4219,162.4844 2241.3125,162.4844 C2242.5313,162.4844 2243.6875,162.1875 2244.4375,161.6406 C2245.0156,161.2344 2245.3438,160.7813 2245.3438,160.3906 C2245.3438,159.9375 2244.9531,159.5469 2244.4844,159.5469 C2244.2656,159.5469 2244.0625,159.625 2243.875,159.8125 C2243.4219,160.2969 2243.4219,160.2969 2243.2344,160.3906 C2242.8125,160.6563 2242.125,160.7813 2241.3594,160.7813 C2239.3125,160.7813 2238.0156,159.6875 2238.0156,157.9844 L2238.0156,156.8906 C2238.0156,155.1094 2239.2656,153.7969 2241,153.7969 C2241.5781,153.7969 2242.1875,153.9531 2242.6563,154.2031 C2243.1406,154.4844 2243.3125,154.7031 2243.4063,155.1094 C2243.4688,155.5156 2243.5,155.6406 2243.6406,155.7656 C2243.7813,155.9063 2244.0156,156.0156 2244.2344,156.0156 C2244.5,156.0156 2244.7656,155.875 2244.9375,155.6563 C2245.0469,155.5 2245.0781,155.3125 2245.0781,154.8906 L2245.0781,153.4688 C2245.0781,153.0313 2245.0625,152.9063 2244.9688,152.75 C2244.8125,152.4844 2244.5313,152.3438 2244.2344,152.3438 C2243.9375,152.3438 2243.7344,152.4375 2243.5156,152.75 L2243.3438,152.6719 Z " fill="#000000"/><text fill="#000000" font-family="sans-serif" font-size="14" lengthAdjust="spacing" textLength="102" x="2255" y="161.8467">TrackableStat</text><rect fill="#FFFFFF" height="15.9688" style="stroke:#181818;stroke-width:1.0;stroke-dasharray:2.0,2.0;" width="102" x="2365" y="138"/><text fill="#000000" font-family="sans-serif" font-size="12" font-style="italic" lengthAdjust="spacing" textLength="100" x="2366" y="150.1387">ScriptableObject</text><line style="stroke:#181818;stroke-width:0.5;" x1="2227" x2="2463" y1="173" y2="173"/><rect fill="none" height="6" style="stroke:#C82930;stroke-width:1.0;" width="6" x="2234" y="183.6484"/><text fill="#000000" font-family="sans-serif" font-size="14" lengthAdjust="spacing" textLength="79" x="2246" y="189.9951">int amount</text><line style="stroke:#181818;stroke-width:0.5;" x1="2227" x2="2463" y1="197.2969" y2="197.2969"/></g><!--class GameObjectRuntimeSetScrub--><g id="elem_GameObjectRuntimeSetScrub"><rect codeLine="33" fill="#F1F1F1" height="48" id="GameObjectRuntimeSetScrub" rx="2.5" ry="2.5" style="stroke:#181818;stroke-width:0.5;" width="250" x="1887" y="358.5"/><ellipse cx="1902" cy="374.5" fill="#ADD1B2" rx="11" ry="11" style="stroke:#181818;stroke-width:1.0;"/><path d="M1904.3438,370.1719 C1903.4063,369.7344 1902.8125,369.5938 1901.9375,369.5938 C1899.3125,369.5938 1897.3125,371.6719 1897.3125,374.3906 L1897.3125,375.5156 C1897.3125,378.0938 1899.4219,379.9844 1902.3125,379.9844 C1903.5313,379.9844 1904.6875,379.6875 1905.4375,379.1406 C1906.0156,378.7344 1906.3438,378.2813 1906.3438,377.8906 C1906.3438,377.4375 1905.9531,377.0469 1905.4844,377.0469 C1905.2656,377.0469 1905.0625,377.125 1904.875,377.3125 C1904.4219,377.7969 1904.4219,377.7969 1904.2344,377.8906 C1903.8125,378.1563 1903.125,378.2813 1902.3594,378.2813 C1900.3125,378.2813 1899.0156,377.1875 1899.0156,375.4844 L1899.0156,374.3906 C1899.0156,372.6094 1900.2656,371.2969 1902,371.2969 C1902.5781,371.2969 1903.1875,371.4531 1903.6563,371.7031 C1904.1406,371.9844 1904.3125,372.2031 1904.4063,372.6094 C1904.4688,373.0156 1904.5,373.1406 1904.6406,373.2656 C1904.7813,373.4063 1905.0156,373.5156 1905.2344,373.5156 C1905.5,373.5156 1905.7656,373.375 1905.9375,373.1563 C1906.0469,373 1906.0781,372.8125 1906.0781,372.3906 L1906.0781,370.9688 C1906.0781,370.5313 1906.0625,370.4063 1905.9688,370.25 C1905.8125,369.9844 1905.5313,369.8438 1905.2344,369.8438 C1904.9375,369.8438 1904.7344,369.9375 1904.5156,370.25 L1904.3438,370.1719 Z " fill="#000000"/><text fill="#000000" font-family="sans-serif" font-size="14" lengthAdjust="spacing" textLength="218" x="1916" y="379.3467">GameObjectRuntimeSetScrub</text><line style="stroke:#181818;stroke-width:0.5;" x1="1888" x2="2136" y1="390.5" y2="390.5"/><line style="stroke:#181818;stroke-width:0.5;" x1="1888" x2="2136" y1="398.5" y2="398.5"/></g><!--class GenericRuntimeSetScrub--><g id="elem_GenericRuntimeSetScrub"><rect codeLine="36" fill="#F1F1F1" height="96.8906" id="GenericRuntimeSetScrub" rx="2.5" ry="2.5" style="stroke:#181818;stroke-width:0.5;" width="316" x="1854" y="124.5"/><ellipse cx="1869" cy="140.5" fill="#A9DCDF" rx="11" ry="11" style="stroke:#181818;stroke-width:1.0;"/><path d="M1871.0781,142.3125 L1871.4688,143.2969 L1871.0781,143.2969 C1870.625,143.2969 1870.5156,143.3125 1870.3594,143.4219 C1870.1094,143.5781 1869.9531,143.8594 1869.9531,144.1563 C1869.9531,144.4219 1870.0938,144.6719 1870.3125,144.8281 C1870.4531,144.9531 1870.6563,145 1871.0781,145 L1873.4375,145 C1873.7969,145 1874.0156,144.9688 1874.1563,144.875 C1874.4063,144.7344 1874.5625,144.4375 1874.5625,144.1563 C1874.5625,143.875 1874.4219,143.625 1874.2031,143.4688 C1874.0313,143.3281 1873.875,143.2969 1873.4063,143.2969 L1870.0156,135.0938 L1866.3438,135.0938 C1865.8906,135.0938 1865.7656,135.1094 1865.6094,135.2031 C1865.3594,135.375 1865.2031,135.6563 1865.2031,135.9375 C1865.2031,136.2188 1865.3438,136.4688 1865.5625,136.6406 C1865.7344,136.75 1865.9063,136.7813 1866.3438,136.7813 L1867.4219,136.7813 L1864.7813,143.2969 C1864.3594,143.2969 1864.2031,143.3125 1864.0469,143.4219 C1863.7969,143.5781 1863.6406,143.8594 1863.6406,144.1563 C1863.6406,144.7188 1864.0156,145 1864.7656,145 L1867.0313,145 C1867.3906,145 1867.6094,144.9688 1867.7344,144.875 C1868,144.7344 1868.1406,144.4375 1868.1406,144.1563 C1868.1406,143.875 1868.0156,143.625 1867.7969,143.4531 C1867.625,143.3281 1867.4844,143.2969 1867.0313,143.2969 L1866.6406,143.2969 L1867.0313,142.3125 L1871.0781,142.3125 Z M1870.375,140.6094 L1867.7031,140.6094 L1869.0469,137.3438 L1870.375,140.6094 Z " fill="#000000"/><text fill="#000000" font-family="sans-serif" font-size="14" font-style="italic" lengthAdjust="spacing" textLength="180" x="1883" y="145.3467">GenericRuntimeSetScrub</text><rect fill="#FFFFFF" height="15.9688" style="stroke:#181818;stroke-width:1.0;stroke-dasharray:2.0,2.0;" width="102" x="2071" y="121.5"/><text fill="#000000" font-family="sans-serif" font-size="12" font-style="italic" lengthAdjust="spacing" textLength="100" x="2072" y="133.6387">ScriptableObject</text><line style="stroke:#181818;stroke-width:0.5;" x1="1855" x2="2169" y1="156.5" y2="156.5"/><line style="stroke:#181818;stroke-width:0.5;" x1="1855" x2="2169" y1="164.5" y2="164.5"/><polygon fill="#FFFF44" points="1865,173.1484,1869,177.1484,1865,181.1484,1861,177.1484" style="stroke:#B38D22;stroke-width:1.0;"/><text fill="#000000" font-family="sans-serif" font-size="14" lengthAdjust="spacing" textLength="221" x="1874" y="181.4951">List&lt;T&gt; items = new List&lt;T&gt;()</text><polygon fill="#FFFF44" points="1865,189.4453,1869,193.4453,1865,197.4453,1861,193.4453" style="stroke:#B38D22;stroke-width:1.0;"/><text fill="#000000" font-family="sans-serif" font-size="14" lengthAdjust="spacing" textLength="167" x="1874" y="197.792">public void Add(T item)</text><polygon fill="#FFFF44" points="1865,205.7422,1869,209.7422,1865,213.7422,1861,209.7422" style="stroke:#B38D22;stroke-width:1.0;"/><text fill="#000000" font-family="sans-serif" font-size="14" lengthAdjust="spacing" textLength="150" x="1874" y="214.0889">void Remove(T item)</text></g><!--class PrefabPreviewIcon--><g id="elem_PrefabPreviewIcon"><rect codeLine="79" fill="#F1F1F1" height="48" id="PrefabPreviewIcon" rx="2.5" ry="2.5" style="stroke:#181818;stroke-width:0.5;" width="275" x="1178.5" y="149"/><ellipse cx="1193.5" cy="165" fill="#ADD1B2" rx="11" ry="11" style="stroke:#181818;stroke-width:1.0;"/><path d="M1195.8438,160.6719 C1194.9063,160.2344 1194.3125,160.0938 1193.4375,160.0938 C1190.8125,160.0938 1188.8125,162.1719 1188.8125,164.8906 L1188.8125,166.0156 C1188.8125,168.5938 1190.9219,170.4844 1193.8125,170.4844 C1195.0313,170.4844 1196.1875,170.1875 1196.9375,169.6406 C1197.5156,169.2344 1197.8438,168.7813 1197.8438,168.3906 C1197.8438,167.9375 1197.4531,167.5469 1196.9844,167.5469 C1196.7656,167.5469 1196.5625,167.625 1196.375,167.8125 C1195.9219,168.2969 1195.9219,168.2969 1195.7344,168.3906 C1195.3125,168.6563 1194.625,168.7813 1193.8594,168.7813 C1191.8125,168.7813 1190.5156,167.6875 1190.5156,165.9844 L1190.5156,164.8906 C1190.5156,163.1094 1191.7656,161.7969 1193.5,161.7969 C1194.0781,161.7969 1194.6875,161.9531 1195.1563,162.2031 C1195.6406,162.4844 1195.8125,162.7031 1195.9063,163.1094 C1195.9688,163.5156 1196,163.6406 1196.1406,163.7656 C1196.2813,163.9063 1196.5156,164.0156 1196.7344,164.0156 C1197,164.0156 1197.2656,163.875 1197.4375,163.6563 C1197.5469,163.5 1197.5781,163.3125 1197.5781,162.8906 L1197.5781,161.4688 C1197.5781,161.0313 1197.5625,160.9063 1197.4688,160.75 C1197.3125,160.4844 1197.0313,160.3438 1196.7344,160.3438 C1196.4375,160.3438 1196.2344,160.4375 1196.0156,160.75 L1195.8438,160.6719 Z " fill="#000000"/><text fill="#000000" font-family="sans-serif" font-size="14" lengthAdjust="spacing" textLength="134" x="1207.5" y="169.8467">PrefabPreviewIcon</text><rect fill="#FFFFFF" height="15.9688" style="stroke:#181818;stroke-width:1.0;stroke-dasharray:2.0,2.0;" width="107" x="1349.5" y="146"/><text fill="#000000" font-family="sans-serif" font-size="12" font-style="italic" lengthAdjust="spacing" textLength="105" x="1350.5" y="158.1387">PropertyAttribute</text><line style="stroke:#181818;stroke-width:0.5;" x1="1179.5" x2="1452.5" y1="181" y2="181"/><line style="stroke:#181818;stroke-width:0.5;" x1="1179.5" x2="1452.5" y1="189" y2="189"/></g><!--class PreviewIconDrawer--><g id="elem_PreviewIconDrawer"><rect codeLine="82" fill="#F1F1F1" height="96.8906" id="PreviewIconDrawer" rx="2.5" ry="2.5" style="stroke:#181818;stroke-width:0.5;" width="267" x="1488.5" y="124.5"/><ellipse cx="1503.5" cy="140.5" fill="#ADD1B2" rx="11" ry="11" style="stroke:#181818;stroke-width:1.0;"/><path d="M1505.8438,136.1719 C1504.9063,135.7344 1504.3125,135.5938 1503.4375,135.5938 C1500.8125,135.5938 1498.8125,137.6719 1498.8125,140.3906 L1498.8125,141.5156 C1498.8125,144.0938 1500.9219,145.9844 1503.8125,145.9844 C1505.0313,145.9844 1506.1875,145.6875 1506.9375,145.1406 C1507.5156,144.7344 1507.8438,144.2813 1507.8438,143.8906 C1507.8438,143.4375 1507.4531,143.0469 1506.9844,143.0469 C1506.7656,143.0469 1506.5625,143.125 1506.375,143.3125 C1505.9219,143.7969 1505.9219,143.7969 1505.7344,143.8906 C1505.3125,144.1563 1504.625,144.2813 1503.8594,144.2813 C1501.8125,144.2813 1500.5156,143.1875 1500.5156,141.4844 L1500.5156,140.3906 C1500.5156,138.6094 1501.7656,137.2969 1503.5,137.2969 C1504.0781,137.2969 1504.6875,137.4531 1505.1563,137.7031 C1505.6406,137.9844 1505.8125,138.2031 1505.9063,138.6094 C1505.9688,139.0156 1506,139.1406 1506.1406,139.2656 C1506.2813,139.4063 1506.5156,139.5156 1506.7344,139.5156 C1507,139.5156 1507.2656,139.375 1507.4375,139.1563 C1507.5469,139 1507.5781,138.8125 1507.5781,138.3906 L1507.5781,136.9688 C1507.5781,136.5313 1507.5625,136.4063 1507.4688,136.25 C1507.3125,135.9844 1507.0313,135.8438 1506.7344,135.8438 C1506.4375,135.8438 1506.2344,135.9375 1506.0156,136.25 L1505.8438,136.1719 Z " fill="#000000"/><text fill="#000000" font-family="sans-serif" font-size="14" lengthAdjust="spacing" textLength="137" x="1517.5" y="145.3467">PreviewIconDrawer</text><rect fill="#FFFFFF" height="15.9688" style="stroke:#181818;stroke-width:1.0;stroke-dasharray:2.0,2.0;" width="96" x="1662.5" y="121.5"/><text fill="#000000" font-family="sans-serif" font-size="12" font-style="italic" lengthAdjust="spacing" textLength="94" x="1663.5" y="133.6387">PropertyDrawer</text><line style="stroke:#181818;stroke-width:0.5;" x1="1489.5" x2="1754.5" y1="156.5" y2="156.5"/><rect fill="none" height="6" style="stroke:#C82930;stroke-width:1.0;" width="6" x="1496.5" y="167.1484"/><text fill="#000000" font-family="sans-serif" font-size="14" lengthAdjust="spacing" textLength="105" x="1508.5" y="173.4951">float _iconSize</text><polygon fill="none" points="1499.5,181.4453,1503.5,185.4453,1499.5,189.4453,1495.5,185.4453" style="stroke:#B38D22;stroke-width:1.0;"/><text fill="#000000" font-family="sans-serif" font-size="14" lengthAdjust="spacing" textLength="78" x="1508.5" y="189.792">void OnGUI</text><polygon fill="none" points="1499.5,197.7422,1503.5,201.7422,1499.5,205.7422,1495.5,201.7422" style="stroke:#B38D22;stroke-width:1.0;"/><text fill="#000000" font-family="sans-serif" font-size="14" lengthAdjust="spacing" textLength="177" x="1508.5" y="206.0889">float GetPropertyHeight</text><line style="stroke:#181818;stroke-width:0.5;" x1="1489.5" x2="1754.5" y1="213.3906" y2="213.3906"/></g><!--class RequiredAttribute--><g id="elem_RequiredAttribute"><rect codeLine="88" fill="#F1F1F1" height="48" id="RequiredAttribute" rx="2.5" ry="2.5" style="stroke:#181818;stroke-width:0.5;" width="273" x="1176.5" y="358.5"/><ellipse cx="1191.5" cy="374.5" fill="#ADD1B2" rx="11" ry="11" style="stroke:#181818;stroke-width:1.0;"/><path d="M1193.8438,370.1719 C1192.9063,369.7344 1192.3125,369.5938 1191.4375,369.5938 C1188.8125,369.5938 1186.8125,371.6719 1186.8125,374.3906 L1186.8125,375.5156 C1186.8125,378.0938 1188.9219,379.9844 1191.8125,379.9844 C1193.0313,379.9844 1194.1875,379.6875 1194.9375,379.1406 C1195.5156,378.7344 1195.8438,378.2813 1195.8438,377.8906 C1195.8438,377.4375 1195.4531,377.0469 1194.9844,377.0469 C1194.7656,377.0469 1194.5625,377.125 1194.375,377.3125 C1193.9219,377.7969 1193.9219,377.7969 1193.7344,377.8906 C1193.3125,378.1563 1192.625,378.2813 1191.8594,378.2813 C1189.8125,378.2813 1188.5156,377.1875 1188.5156,375.4844 L1188.5156,374.3906 C1188.5156,372.6094 1189.7656,371.2969 1191.5,371.2969 C1192.0781,371.2969 1192.6875,371.4531 1193.1563,371.7031 C1193.6406,371.9844 1193.8125,372.2031 1193.9063,372.6094 C1193.9688,373.0156 1194,373.1406 1194.1406,373.2656 C1194.2813,373.4063 1194.5156,373.5156 1194.7344,373.5156 C1195,373.5156 1195.2656,373.375 1195.4375,373.1563 C1195.5469,373 1195.5781,372.8125 1195.5781,372.3906 L1195.5781,370.9688 C1195.5781,370.5313 1195.5625,370.4063 1195.4688,370.25 C1195.3125,369.9844 1195.0313,369.8438 1194.7344,369.8438 C1194.4375,369.8438 1194.2344,369.9375 1194.0156,370.25 L1193.8438,370.1719 Z " fill="#000000"/><text fill="#000000" font-family="sans-serif" font-size="14" lengthAdjust="spacing" textLength="132" x="1205.5" y="379.3467">RequiredAttribute</text><rect fill="#FFFFFF" height="15.9688" style="stroke:#181818;stroke-width:1.0;stroke-dasharray:2.0,2.0;" width="107" x="1345.5" y="355.5"/><text fill="#000000" font-family="sans-serif" font-size="12" font-style="italic" lengthAdjust="spacing" textLength="105" x="1346.5" y="367.6387">PropertyAttribute</text><line style="stroke:#181818;stroke-width:0.5;" x1="1177.5" x2="1448.5" y1="390.5" y2="390.5"/><line style="stroke:#181818;stroke-width:0.5;" x1="1177.5" x2="1448.5" y1="398.5" y2="398.5"/></g><!--class RequiredAttributeDrawer--><g id="elem_RequiredAttributeDrawer"><rect codeLine="91" fill="#F1F1F1" height="80.5938" id="RequiredAttributeDrawer" rx="2.5" ry="2.5" style="stroke:#181818;stroke-width:0.5;" width="313" x="1484.5" y="342"/><ellipse cx="1499.5" cy="358" fill="#ADD1B2" rx="11" ry="11" style="stroke:#181818;stroke-width:1.0;"/><path d="M1501.8438,353.6719 C1500.9063,353.2344 1500.3125,353.0938 1499.4375,353.0938 C1496.8125,353.0938 1494.8125,355.1719 1494.8125,357.8906 L1494.8125,359.0156 C1494.8125,361.5938 1496.9219,363.4844 1499.8125,363.4844 C1501.0313,363.4844 1502.1875,363.1875 1502.9375,362.6406 C1503.5156,362.2344 1503.8438,361.7813 1503.8438,361.3906 C1503.8438,360.9375 1503.4531,360.5469 1502.9844,360.5469 C1502.7656,360.5469 1502.5625,360.625 1502.375,360.8125 C1501.9219,361.2969 1501.9219,361.2969 1501.7344,361.3906 C1501.3125,361.6563 1500.625,361.7813 1499.8594,361.7813 C1497.8125,361.7813 1496.5156,360.6875 1496.5156,358.9844 L1496.5156,357.8906 C1496.5156,356.1094 1497.7656,354.7969 1499.5,354.7969 C1500.0781,354.7969 1500.6875,354.9531 1501.1563,355.2031 C1501.6406,355.4844 1501.8125,355.7031 1501.9063,356.1094 C1501.9688,356.5156 1502,356.6406 1502.1406,356.7656 C1502.2813,356.9063 1502.5156,357.0156 1502.7344,357.0156 C1503,357.0156 1503.2656,356.875 1503.4375,356.6563 C1503.5469,356.5 1503.5781,356.3125 1503.5781,355.8906 L1503.5781,354.4688 C1503.5781,354.0313 1503.5625,353.9063 1503.4688,353.75 C1503.3125,353.4844 1503.0313,353.3438 1502.7344,353.3438 C1502.4375,353.3438 1502.2344,353.4375 1502.0156,353.75 L1501.8438,353.6719 Z " fill="#000000"/><text fill="#000000" font-family="sans-serif" font-size="14" lengthAdjust="spacing" textLength="183" x="1513.5" y="362.8467">RequiredAttributeDrawer</text><rect fill="#FFFFFF" height="15.9688" style="stroke:#181818;stroke-width:1.0;stroke-dasharray:2.0,2.0;" width="96" x="1704.5" y="339"/><text fill="#000000" font-family="sans-serif" font-size="12" font-style="italic" lengthAdjust="spacing" textLength="94" x="1705.5" y="351.1387">PropertyDrawer</text><line style="stroke:#181818;stroke-width:0.5;" x1="1485.5" x2="1796.5" y1="374" y2="374"/><polygon fill="none" points="1495.5,382.6484,1499.5,386.6484,1495.5,390.6484,1491.5,386.6484" style="stroke:#B38D22;stroke-width:1.0;"/><text fill="#000000" font-family="sans-serif" font-size="14" lengthAdjust="spacing" textLength="78" x="1504.5" y="390.9951">void OnGUI</text><polygon fill="none" points="1495.5,398.9453,1499.5,402.9453,1495.5,406.9453,1491.5,402.9453" style="stroke:#B38D22;stroke-width:1.0;"/><text fill="#000000" font-family="sans-serif" font-size="14" lengthAdjust="spacing" textLength="177" x="1504.5" y="407.292">bool IsValueNullOrEmpty</text><line style="stroke:#181818;stroke-width:0.5;" x1="1485.5" x2="1796.5" y1="414.5938" y2="414.5938"/></g><path d="M3937,356 L4097,356 A3.75,3.75 0 0 1 4099.5,358.5 L4106.5,378.2969 L4111,378.2969 A2.5,2.5 0 0 1 4113.5,380.7969 L4113.5,406.0938 A2.5,2.5 0 0 1 4111,408.5938 L3937,408.5938 A2.5,2.5 0 0 1 3934.5,406.0938 L3934.5,358.5 A2.5,2.5 0 0 1 3937,356 " fill="#F1F1F1" style="stroke:#181818;stroke-width:0.5;"/><line style="stroke:#181818;stroke-width:0.5;" x1="3934.5" x2="4106.5" y1="378.2969" y2="378.2969"/><text fill="#000000" font-family="sans-serif" font-size="14" font-weight="bold" lengthAdjust="spacing" textLength="159" x="3938.5" y="370.9951">AchievementScrubs</text><path d="M3711,356 L3883,356 A3.75,3.75 0 0 1 3885.5,358.5 L3892.5,378.2969 L3897,378.2969 A2.5,2.5 0 0 1 3899.5,380.7969 L3899.5,406.0938 A2.5,2.5 0 0 1 3897,408.5938 L3711,408.5938 A2.5,2.5 0 0 1 3708.5,406.0938 L3708.5,358.5 A2.5,2.5 0 0 1 3711,356 " fill="#F1F1F1" style="stroke:#181818;stroke-width:0.5;"/><line style="stroke:#181818;stroke-width:0.5;" x1="3708.5" x2="3892.5" y1="378.2969" y2="378.2969"/><text fill="#000000" font-family="sans-serif" font-size="14" font-weight="bold" lengthAdjust="spacing" textLength="171" x="3712.5" y="370.9951">TrackableStatScrubs</text><path d="M3549,356 L3657,356 A3.75,3.75 0 0 1 3659.5,358.5 L3666.5,378.2969 L3671,378.2969 A2.5,2.5 0 0 1 3673.5,380.7969 L3673.5,406.0938 A2.5,2.5 0 0 1 3671,408.5938 L3549,408.5938 A2.5,2.5 0 0 1 3546.5,406.0938 L3546.5,358.5 A2.5,2.5 0 0 1 3549,356 " fill="#F1F1F1" style="stroke:#181818;stroke-width:0.5;"/><line style="stroke:#181818;stroke-width:0.5;" x1="3546.5" x2="3666.5" y1="378.2969" y2="378.2969"/><text fill="#000000" font-family="sans-serif" font-size="14" font-weight="bold" lengthAdjust="spacing" textLength="107" x="3550.5" y="370.9951">EnemyScrubs</text><path d="M3361.5,356 L3494.5,356 A3.75,3.75 0 0 1 3497,358.5 L3504,378.2969 L3508.5,378.2969 A2.5,2.5 0 0 1 3511,380.7969 L3511,406.0938 A2.5,2.5 0 0 1 3508.5,408.5938 L3361.5,408.5938 A2.5,2.5 0 0 1 3359,406.0938 L3359,358.5 A2.5,2.5 0 0 1 3361.5,356 " fill="#F1F1F1" style="stroke:#181818;stroke-width:0.5;"/><line style="stroke:#181818;stroke-width:0.5;" x1="3359" x2="3504" y1="378.2969" y2="378.2969"/><text fill="#000000" font-family="sans-serif" font-size="14" font-weight="bold" lengthAdjust="spacing" textLength="132" x="3363" y="370.9951">ProjectileScrubs</text><path d="M3156.5,356 L3307.5,356 A3.75,3.75 0 0 1 3310,358.5 L3317,378.2969 L3321.5,378.2969 A2.5,2.5 0 0 1 3324,380.7969 L3324,406.0938 A2.5,2.5 0 0 1 3321.5,408.5938 L3156.5,408.5938 A2.5,2.5 0 0 1 3154,406.0938 L3154,358.5 A2.5,2.5 0 0 1 3156.5,356 " fill="#F1F1F1" style="stroke:#181818;stroke-width:0.5;"/><line style="stroke:#181818;stroke-width:0.5;" x1="3154" x2="3317" y1="378.2969" y2="378.2969"/><text fill="#000000" font-family="sans-serif" font-size="14" font-weight="bold" lengthAdjust="spacing" textLength="150" x="3158" y="370.9951">RuntimeSetScrubs</text><!--link Achievement to Requirement--><g id="link_Achievement_Requirement"><path codeLine="117" d="M2624,229.606 C2624,262.139 2624,296.787 2624,327.844 " fill="none" id="Achievement-to-Requirement" style="stroke:#181818;stroke-width:1.0;"/><polygon fill="#181818" points="2624,333.844,2628,324.844,2624,328.844,2620,324.844,2624,333.844" style="stroke:#181818;stroke-width:1.0;"/></g><!--link AchievementFunctions to TrackableStatScrubs--><g id="link_AchievementFunctions_TrackableStatScrubs"><path codeLine="118" d="M3074.29,179.795 C3267.94,189.577 3598.58,214.068 3705,270 C3742.35,289.631 3769.0433,324.4075 3785.8533,350.7605 " fill="none" id="AchievementFunctions-to-TrackableStatScrubs" style="stroke:#181818;stroke-width:1.0;"/><polygon fill="#181818" points="3789.08,355.819,3787.6123,346.0801,3786.3911,351.6036,3780.8676,350.3824,3789.08,355.819" style="stroke:#181818;stroke-width:1.0;"/></g><!--link AchievementFunctions to AchievementScrubs--><g id="link_AchievementFunctions_AchievementScrubs"><path codeLine="119" d="M3074.03,175.843 C3311.66,180.883 3772.01,199.706 3917,270 C3956.35,289.078 3985.5373,324.144 4004.0473,350.679 " fill="none" id="AchievementFunctions-to-AchievementScrubs" style="stroke:#181818;stroke-width:1.0;"/><polygon fill="#181818" points="4007.48,355.6,4005.6116,345.93,4004.6194,351.4992,3999.0502,350.507,4007.48,355.6" style="stroke:#181818;stroke-width:1.0;"/></g><!--link Spawner to IFactory--><g id="link_Spawner_IFactory"><path codeLine="120" d="M152,246.282 C152,281.838 152,316.841 152,344.288 " fill="none" id="Spawner-to-IFactory" style="stroke:#181818;stroke-width:1.0;"/><polygon fill="#181818" points="152,350.288,156,341.288,152,345.288,148,341.288,152,350.288" style="stroke:#181818;stroke-width:1.0;"/></g><!--reverse link GenericRuntimeSetScrub to GameObjectRuntimeSetScrub--><g id="link_GenericRuntimeSetScrub_GameObjectRuntimeSetScrub"><path codeLine="122" d="M2012,239.605 C2012,282.44 2012,325.546 2012,358.431 " fill="none" id="GenericRuntimeSetScrub-backto-GameObjectRuntimeSetScrub" style="stroke:#181818;stroke-width:1.0;"/><polygon fill="none" points="2012,221.605,2006,239.605,2018,239.605,2012,221.605" style="stroke:#181818;stroke-width:1.0;"/></g><!--SRC=[ZLPjRzem4FxEhx3KBvqc_i34a2W56caj5T1zcQRA90TuTUpCla3PrlxsNPmt1vAs7qhbk-VEpxqw2G-V-1RO0mffsTyUImh1ADm9s4CC2fsSXP9RwulPO1aQaI1VIvYlVq68GmTaVMRH2BLbl0RVyHYwTDTWdIEXLGvPQosPi3ED24xqoXRmEnN6mN_yPAO-MTA_q5_5q4EMT5Oc2ufeBf4Z4U2OomL1UAnJXOLHrBX_hED40a9z0ryJUnxYUJAcgGgp02mRt6gbhs37zqAdfaZ9gu-b04PI-WdE8GsQEQWXSh0BjjSYOgC3VmBl72Y1Waln1qxzNjIi7V91IHq-UIZFom8ieAUwDtfhmDh6HQ41Rg71BDUxjDrmIxmNRnIeMOtk9gghatjuwTNTkI2fY649wFNcZ7eizr6hoNkwTfZs4iv0WH7XgK4NAnVdDs5ni1eoWH1RzfKfE9IooqyLAadNKeH5jQBeSkNmjRv8UAptuEbSdCIJIAP4SYnvd40qbPfZoQ3FDkuO2_MTonHEfFovHRe_5tcepzGK0eyZry43fnwokIfB_Jxo6ZwAT8ZnZgjjDcmkLAepc0qFWGLJAemsnpBIkg1iJFuHQa6MQ6VTA6ErnN86AvBZWgj8nrEZuv4n_4X5gjLKbsp8jQ8-3JPt6YVFL4UR5VUm0mC4-S8gH6L7iqcEgSrTizX0qTpGh8SmrJ82qpG_xQG6EUVWwfXjnq2L_Duqze9UQ1eWMEa3Dv6zrQc5zkMJtUQbqZYpA3_Pdj-E3qd4ittdBZcPb6N23vJahYlwb2UZKnGAsAFDiBJbAr6EUQqhNFolRXS6Kovp5kwccd238UqCWyl2_GY3h7UekKymEkc611ELnc0uNS_QK2xsSi-CKulKE4XlrZf5y5_2UmCRlgRVlO1346h51hGk4p3Kz2L-w6-Uogmqk3Rya2MqDClFzQOf9_LH47X9gxsvE-PgzX1KeXnABLLwkm6ntM77wnXL53_6-ipiFUwj7Dq34LYt0-vIAUTc4YTuBDSUBVXglnS3zVOdIOiYdqW_W1BKU7QQi4R99mhYOwrlw2ZQh2C5EMa7dBmZ1O02yx-R-lsX_vNIQ_sCo40jbBl1PqdebHERQSl1w_MwNhn__Nxt2_eV]--></g></svg>